<?xml version="1.0" standalone="no"?>
<!DOCTYPE svg PUBLIC "-//W3C//DTD SVG 20010904//EN"
 "http://www.w3.org/TR/2001/REC-SVG-20010904/DTD/svg10.dtd">
<svg version="1.0" xmlns="http://www.w3.org/2000/svg"
 width="480.000000pt" height="480.000000pt" viewBox="0 0 480.000000 480.000000"
 preserveAspectRatio="xMidYMid meet">
<metadata>
Created by potrace 1.14, written by Peter Selinger 2001-2017
</metadata>
<g transform="translate(0.000000,480.000000) scale(0.100000,-0.100000)"
fill="#000000" stroke="none">
<path d="M1263 4781 c-41 -25 -53 -49 -53 -103 0 -52 21 -85 66 -104 27 -11
35 -22 44 -56 6 -24 23 -82 37 -131 26 -86 26 -88 7 -102 -41 -30 -52 -25
-111 48 -90 110 -92 114 -81 154 19 70 -31 143 -98 143 -72 0 -114 -43 -114
-118 0 -52 30 -89 78 -98 20 -3 44 -8 53 -10 21 -6 159 -179 159 -199 0 -9
-11 -31 -24 -48 -34 -46 -72 -124 -90 -187 -16 -58 -22 -117 -31 -320 -14
-307 -32 -333 -384 -541 -313 -184 -526 -445 -615 -753 -34 -117 -38 -148 -41
-337 -3 -181 7 -263 51 -408 43 -140 97 -243 212 -402 30 -41 219 -232 268
-270 115 -90 248 -172 379 -233 151 -72 427 -153 580 -171 28 -3 60 -8 71 -10
12 -3 49 -7 83 -10 33 -4 70 -8 81 -10 30 -6 14 12 -31 35 -66 34 -178 110
-263 178 -364 291 -545 642 -549 1064 -2 191 27 325 103 485 73 155 119 215
305 408 113 116 160 176 194 244 50 99 62 149 62 246 0 67 -17 142 -71 320
-27 89 -34 197 -14 244 21 50 42 70 99 97 46 22 60 23 165 19 169 -6 289 -33
469 -104 67 -27 70 -31 -99 139 -93 94 -139 150 -178 216 -58 97 -99 147 -150
183 -40 28 -133 62 -187 68 -22 3 -42 7 -44 9 -7 7 19 156 31 178 5 10 30 37
54 60 40 38 44 47 44 89 0 83 -72 133 -152 105 -70 -25 -93 -127 -42 -188 l26
-31 -16 -92 c-10 -51 -19 -102 -22 -114 -3 -16 -14 -24 -40 -29 -19 -3 -37 -4
-40 -1 -3 3 -19 58 -35 121 l-30 116 25 53 c28 57 27 98 -2 130 -40 44 -94 55
-139 28z m457 -642 c29 -9 66 -34 107 -72 63 -59 79 -89 46 -83 -10 2 -40 7
-68 11 -127 21 -153 33 -196 90 -53 71 -52 79 14 72 30 -3 73 -11 97 -18z"/>
<path d="M2795 4098 c-108 -38 -160 -153 -120 -267 l14 -41 -52 -57 c-28 -32
-135 -140 -236 -240 l-183 -182 -1 -140 c0 -136 -1 -141 -21 -142 -12 -1 -30
-3 -41 -4 -11 -1 -60 -3 -110 -4 l-90 -1 -112 -111 c-62 -61 -113 -114 -113
-118 0 -4 22 -63 48 -130 45 -114 62 -137 62 -87 1 42 42 110 108 178 37 38
71 76 75 84 6 11 43 14 191 14 l183 0 1 98 c1 53 2 137 2 186 1 53 6 94 13
101 7 7 53 55 103 106 50 52 121 130 158 174 139 165 158 185 184 191 133 28
204 109 196 220 -10 128 -139 214 -259 172z m101 -126 c20 -13 35 -53 28 -75
-24 -76 -136 -55 -129 24 2 18 11 39 21 46 19 14 62 17 80 5z"/>
<path d="M3484 4001 c-96 -24 -184 -96 -229 -187 -33 -66 -95 -129 -444 -449
-31 -27 -65 -59 -76 -70 -12 -11 -48 -44 -79 -74 -32 -29 -61 -63 -64 -75 -10
-30 -3 -248 8 -244 10 4 355 328 569 535 l105 101 62 -58 c132 -123 309 -125
429 -5 135 136 115 366 -42 474 -65 44 -173 68 -239 52z m139 -230 c54 -53 35
-155 -33 -179 -106 -38 -196 78 -131 168 42 58 113 63 164 11z"/>
<path d="M4034 3342 c-93 -33 -166 -109 -195 -204 -26 -83 -5 -214 44 -278
l19 -25 -179 -175 c-193 -189 -417 -400 -472 -446 l-33 -28 -187 -2 c-102 -1
-360 -3 -573 -4 -213 -1 -390 -5 -392 -9 -5 -7 10 -27 82 -114 23 -28 42 -54
42 -59 0 -4 251 -8 558 -8 l557 1 91 87 c101 98 456 434 631 599 41 38 60 49
90 51 143 10 248 75 298 185 71 155 6 348 -141 417 -63 29 -176 35 -240 12z
m150 -192 c69 -26 84 -129 26 -182 -53 -49 -148 -28 -176 38 -39 94 52 182
150 144z"/>
<path d="M3254 2996 c-37 -17 -79 -56 -99 -96 -9 -17 -21 -31 -28 -31 -28 -4
-128 -7 -218 -8 l-96 -1 -122 -120 -123 -121 -126 2 c-117 1 -130 3 -170 26
-57 34 -158 37 -200 6 -88 -64 -88 -212 -1 -274 62 -44 173 -23 221 41 l22 30
175 0 176 0 124 118 123 118 137 3 c103 2 147 -2 180 -13 60 -22 109 -20 161
7 59 29 102 97 102 160 0 115 -131 199 -238 153z m109 -128 c19 -26 19 -28 3
-53 -23 -35 -41 -40 -71 -21 -31 20 -33 58 -4 87 25 25 46 22 72 -13z m-1171
-310 c25 -21 28 -54 6 -77 -33 -36 -88 -20 -88 26 0 50 47 79 82 51z"/>
<path d="M1526 2593 l-68 -65 12 -42 c23 -77 81 -219 131 -319 114 -226 239
-399 423 -582 159 -159 198 -192 440 -379 93 -72 264 -241 306 -301 17 -25 32
-45 34 -45 5 0 -23 118 -41 175 -65 204 -106 260 -443 595 -158 157 -316 323
-352 370 -145 188 -257 383 -333 575 -15 39 -30 73 -34 77 -3 4 -37 -22 -75
-59z"/>
<path d="M4353 2446 c-61 -20 -109 -52 -146 -99 -47 -59 -67 -116 -69 -200
l-1 -72 -73 -71 -74 -72 -227 -5 c-126 -3 -240 -10 -254 -15 -179 -70 -147
-345 41 -344 95 1 170 66 170 148 l0 24 178 0 177 0 45 43 c25 23 65 58 88 79
l44 36 56 -26 c45 -20 72 -26 129 -25 40 0 87 6 105 13 60 24 134 88 164 142
26 48 29 62 29 148 0 72 -4 104 -18 132 -27 53 -97 121 -151 148 -58 28 -155
35 -213 16z m164 -218 c51 -52 34 -155 -30 -178 -55 -19 -87 -12 -124 25 -33
33 -35 39 -31 86 7 73 34 98 104 96 44 -2 59 -8 81 -29z m-915 -474 c10 -22 8
-28 -14 -51 -24 -23 -28 -24 -53 -12 -38 19 -42 53 -10 85 21 21 28 23 45 14
12 -6 26 -22 32 -36z"/>
<path d="M1296 2354 c-76 -78 -146 -238 -171 -389 -13 -74 -13 -293 0 -372 47
-288 232 -568 515 -780 182 -136 530 -287 835 -362 80 -19 106 -25 198 -37
l48 -7 -6 59 c-20 201 -57 304 -152 421 -55 68 -52 65 -128 128 -33 28 -62 52
-65 55 -3 3 -48 39 -100 80 -189 149 -341 292 -465 435 -33 39 -62 72 -65 75
-16 14 -122 164 -158 222 -74 118 -196 385 -208 454 -1 6 -8 24 -17 39 l-14
28 -47 -49z"/>
<path d="M2513 1685 l98 -95 132 0 c73 0 137 -4 143 -8 6 -4 99 -91 205 -194
107 -102 226 -216 264 -252 l70 -66 165 0 165 0 27 -39 c33 -47 108 -98 155
-107 124 -23 254 39 302 146 26 57 28 167 5 216 -40 83 -130 144 -223 150
-104 6 -190 -40 -248 -131 l-28 -45 -111 0 -111 0 -143 138 c-79 75 -200 192
-269 259 l-126 122 -285 0 -285 0 98 -94z m1557 -438 c15 -15 32 -41 35 -58 6
-26 2 -36 -22 -61 -16 -16 -44 -31 -65 -34 -29 -5 -41 -1 -67 22 -46 42 -47
96 -2 136 40 36 79 34 121 -5z"/>
<path d="M2830 1316 c0 -3 13 -33 29 -68 16 -35 43 -103 60 -153 30 -88 33
-92 123 -179 51 -48 178 -170 282 -270 363 -348 338 -320 350 -391 19 -105
130 -214 246 -241 193 -44 393 101 405 293 7 115 -45 231 -131 292 -62 45
-113 58 -212 55 -99 -4 -152 -25 -209 -82 l-40 -40 -125 121 c-70 67 -231 223
-359 347 -127 124 -249 241 -269 261 -20 20 -46 42 -58 48 -20 10 -92 16 -92
7z m1246 -889 c30 -27 37 -42 40 -77 7 -101 -78 -165 -169 -127 -53 23 -79 69
-74 132 4 41 10 54 38 77 26 22 43 28 81 28 41 0 54 -5 84 -33z"/>
<path d="M2935 668 c-88 -25 -128 -135 -76 -208 75 -106 255 -49 253 81 -1 89
-90 152 -177 127z"/>
<path d="M3169 392 c-45 -46 -56 -80 -40 -132 24 -81 88 -125 159 -109 100 22
145 116 101 211 -16 35 -83 68 -138 68 -37 0 -49 -6 -82 -38z"/>
</g>
</svg>
